<svg width="192" height="200" viewBox="0 0 192 200" fill="none" xmlns="http://www.w3.org/2000/svg">
<path d="M192 192C192 194.122 191.157 196.157 189.657 197.657C188.157 199.157 186.122 200 184 200H8C5.87827 200 3.84344 199.157 2.34315 197.657C0.842856 196.157 0 194.122 0 192C0 189.878 0.842856 187.843 2.34315 186.343C3.84344 184.843 5.87827 184 8 184H184C186.122 184 188.157 184.843 189.657 186.343C191.157 187.843 192 189.878 192 192ZM104 152V56C104 51.7565 105.686 47.6869 108.686 44.6863C111.687 41.6857 115.757 40 120 40H160C164.243 40 168.313 41.6857 171.314 44.6863C174.314 47.6869 176 51.7565 176 56V152C176 156.243 174.314 160.313 171.314 163.314C168.313 166.314 164.243 168 160 168H120C115.757 168 111.687 166.314 108.686 163.314C105.686 160.313 104 156.243 104 152ZM120 152H160V56H120V152ZM16 152V16C16 11.7565 17.6857 7.68687 20.6863 4.68629C23.6869 1.68571 27.7565 0 32 0H72C76.2435 0 80.3131 1.68571 83.3137 4.68629C86.3143 7.68687 88 11.7565 88 16V152C88 156.243 86.3143 160.313 83.3137 163.314C80.3131 166.314 76.2435 168 72 168H32C27.7565 168 23.6869 166.314 20.6863 163.314C17.6857 160.313 16 156.243 16 152ZM32 152H72V16H32V152Z" fill="white"/>
</svg>
