<svg width="31" height="21" viewBox="0 0 31 21" fill="none" xmlns="http://www.w3.org/2000/svg">
<path d="M2.37499 3.20841H28.625C29.0118 3.20841 29.3827 3.05477 29.6562 2.78128C29.9297 2.50779 30.0833 2.13686 30.0833 1.75008C30.0833 1.36331 29.9297 0.992375 29.6562 0.718884C29.3827 0.445394 29.0118 0.291748 28.625 0.291748H2.37499C1.98822 0.291748 1.61728 0.445394 1.34379 0.718884C1.0703 0.992375 0.916656 1.36331 0.916656 1.75008C0.916656 2.13686 1.0703 2.50779 1.34379 2.78128C1.61728 3.05477 1.98822 3.20841 2.37499 3.20841ZM28.625 17.7917H8.20832C7.82155 17.7917 7.45062 17.9454 7.17713 18.2189C6.90364 18.4924 6.74999 18.8633 6.74999 19.2501C6.74999 19.6369 6.90364 20.0078 7.17713 20.2813C7.45062 20.5548 7.82155 20.7084 8.20832 20.7084H28.625C29.0118 20.7084 29.3827 20.5548 29.6562 20.2813C29.9297 20.0078 30.0833 19.6369 30.0833 19.2501C30.0833 18.8633 29.9297 18.4924 29.6562 18.2189C29.3827 17.9454 29.0118 17.7917 28.625 17.7917ZM28.625 6.12508H8.20832C7.82155 6.12508 7.45062 6.27873 7.17713 6.55222C6.90364 6.82571 6.74999 7.19664 6.74999 7.58341C6.74999 7.97019 6.90364 8.34112 7.17713 8.61461C7.45062 8.8881 7.82155 9.04175 8.20832 9.04175H28.625C29.0118 9.04175 29.3827 8.8881 29.6562 8.61461C29.9297 8.34112 30.0833 7.97019 30.0833 7.58341C30.0833 7.19664 29.9297 6.82571 29.6562 6.55222C29.3827 6.27873 29.0118 6.12508 28.625 6.12508ZM28.625 11.9584H2.37499C1.98822 11.9584 1.61728 12.1121 1.34379 12.3856C1.0703 12.659 0.916656 13.03 0.916656 13.4167C0.916656 13.8035 1.0703 14.1745 1.34379 14.4479C1.61728 14.7214 1.98822 14.8751 2.37499 14.8751H28.625C29.0118 14.8751 29.3827 14.7214 29.6562 14.4479C29.9297 14.1745 30.0833 13.8035 30.0833 13.4167C30.0833 13.03 29.9297 12.659 29.6562 12.3856C29.3827 12.1121 29.0118 11.9584 28.625 11.9584Z" fill="white"/>
</svg>
