<svg width="192" height="200" viewBox="0 0 192 200" fill="none" xmlns="http://www.w3.org/2000/svg">
<path d="M192 8C192 10.1217 191.157 12.1566 189.657 13.6569C188.157 15.1571 186.122 16 184 16H8C5.87827 16 3.84344 15.1571 2.34315 13.6569C0.842856 12.1566 0 10.1217 0 8C0 5.87827 0.842856 3.84344 2.34315 2.34315C3.84344 0.842856 5.87827 0 8 0H184C186.122 0 188.157 0.842856 189.657 2.34315C191.157 3.84344 192 5.87827 192 8ZM176 48V144C176 148.243 174.314 152.313 171.314 155.314C168.313 158.314 164.243 160 160 160H120C115.757 160 111.687 158.314 108.686 155.314C105.686 152.313 104 148.243 104 144V48C104 43.7565 105.686 39.6869 108.686 36.6863C111.687 33.6857 115.757 32 120 32H160C164.243 32 168.313 33.6857 171.314 36.6863C174.314 39.6869 176 43.7565 176 48ZM160 48H120V144H160V48ZM88 48V184C88 188.243 86.3143 192.313 83.3137 195.314C80.3131 198.314 76.2435 200 72 200H32C27.7565 200 23.6869 198.314 20.6863 195.314C17.6857 192.313 16 188.243 16 184V48C16 43.7565 17.6857 39.6869 20.6863 36.6863C23.6869 33.6857 27.7565 32 32 32H72C76.2435 32 80.3131 33.6857 83.3137 36.6863C86.3143 39.6869 88 43.7565 88 48ZM72 48H32V184H72V48Z" fill="white"/>
</svg>
