<svg width="6" height="16" viewBox="0 0 6 16" fill="none" xmlns="http://www.w3.org/2000/svg">
<path d="M5.99999 15C5.99999 15.2833 5.90399 15.5207 5.71199 15.712C5.51999 15.9033 5.28266 15.9993 4.99999 16C4.71733 16.0007 4.47999 15.9047 4.28799 15.712C4.09599 15.5193 3.99999 15.282 3.99999 15L3.99999 0.999996C3.99999 0.716663 4.09599 0.478997 4.28799 0.286997C4.47999 0.0949966 4.71733 -0.000670688 4.99999 -4.03325e-06C5.28266 0.000662621 5.52033 0.0966627 5.71299 0.287996C5.90566 0.479329 6.00133 0.716663 5.99999 0.999996L5.99999 15ZM1.99999 15C1.99999 15.2833 1.90399 15.5207 1.71199 15.712C1.51999 15.9033 1.28266 15.9993 0.999992 16C0.717326 16.0007 0.479992 15.9047 0.287992 15.712C0.0959925 15.5193 -7.66078e-06 15.282 -7.67311e-06 15L-8.28507e-06 0.999996C-8.29745e-06 0.716663 0.0959918 0.478997 0.287992 0.286997C0.479992 0.0949968 0.717325 -0.000670513 0.999992 -3.85841e-06C1.28266 0.000662796 1.52033 0.0966629 1.71299 0.287996C1.90566 0.47933 2.00133 0.716663 1.99999 0.999996L1.99999 15Z" fill="white"/>
</svg>
